<svg width="162" height="19" viewBox="0 0 162 19" fill="none" xmlns="http://www.w3.org/2000/svg">
<path d="M0.584 18V1.2H11.384V4.08H3.752V8.088H10.712V10.968H3.752V15.12H11.528V18H0.584ZM13.9691 18V6.096H16.9451V7.656H17.3771C17.5691 7.24 17.9291 6.848 18.4571 6.48C18.9851 6.096 19.7851 5.904 20.8571 5.904C21.7851 5.904 22.5931 6.12 23.2811 6.552C23.9851 6.968 24.5291 7.552 24.9131 8.304C25.2971 9.04 25.4891 9.904 25.4891 10.896V18H22.4651V11.136C22.4651 10.24 22.2411 9.568 21.7931 9.12C21.3611 8.672 20.7371 8.448 19.9211 8.448C18.9931 8.448 18.2731 8.76 17.7611 9.384C17.2491 9.992 16.9931 10.848 16.9931 11.952V18H13.9691ZM34.1821 18.336C32.9981 18.336 31.9501 18.088 31.0381 17.592C30.1421 17.08 29.4381 16.368 28.9261 15.456C28.4301 14.528 28.1821 13.44 28.1821 12.192V11.904C28.1821 10.656 28.4301 9.576 28.9261 8.664C29.4221 7.736 30.1181 7.024 31.0141 6.528C31.9101 6.016 32.9501 5.76 34.1341 5.76C35.3021 5.76 36.3181 6.024 37.1821 6.552C38.0461 7.064 38.7181 7.784 39.1981 8.712C39.6781 9.624 39.9181 10.688 39.9181 11.904V12.936H31.2541C31.2861 13.752 31.5901 14.416 32.1661 14.928C32.7421 15.44 33.4461 15.696 34.2781 15.696C35.1261 15.696 35.7501 15.512 36.1501 15.144C36.5501 14.776 36.8541 14.368 37.0621 13.92L39.5341 15.216C39.3101 15.632 38.9821 16.088 38.5501 16.584C38.1341 17.064 37.5741 17.48 36.8701 17.832C36.1661 18.168 35.2701 18.336 34.1821 18.336ZM31.2781 10.68H36.8461C36.7821 9.992 36.5021 9.44 36.0061 9.024C35.5261 8.608 34.8941 8.4 34.1101 8.4C33.2941 8.4 32.6461 8.608 32.1661 9.024C31.6861 9.44 31.3901 9.992 31.2781 10.68ZM42.6097 18V6.096H45.5857V7.392H46.0177C46.2257 6.992 46.5697 6.648 47.0497 6.36C47.5297 6.056 48.1617 5.904 48.9457 5.904C49.7937 5.904 50.4737 6.072 50.9857 6.408C51.4977 6.728 51.8897 7.152 52.1617 7.68H52.5937C52.8657 7.168 53.2497 6.744 53.7457 6.408C54.2417 6.072 54.9457 5.904 55.8577 5.904C56.5937 5.904 57.2577 6.064 57.8497 6.384C58.4577 6.688 58.9377 7.16 59.2897 7.8C59.6577 8.424 59.8417 9.216 59.8417 10.176V18H56.8177V10.392C56.8177 9.736 56.6497 9.248 56.3137 8.928C55.9777 8.592 55.5057 8.424 54.8977 8.424C54.2097 8.424 53.6737 8.648 53.2897 9.096C52.9217 9.528 52.7377 10.152 52.7377 10.968V18H49.7137V10.392C49.7137 9.736 49.5457 9.248 49.2097 8.928C48.8737 8.592 48.4017 8.424 47.7937 8.424C47.1057 8.424 46.5697 8.648 46.1857 9.096C45.8177 9.528 45.6337 10.152 45.6337 10.968V18H42.6097ZM69.0918 18V1.2H75.1158L78.4518 15.84H78.8838V1.2H82.0038V18H75.9798L72.6438 3.36H72.2118V18H69.0918ZM90.9299 18.336C89.7459 18.336 88.6819 18.096 87.7379 17.616C86.7939 17.136 86.0499 16.44 85.5059 15.528C84.9619 14.616 84.6899 13.52 84.6899 12.24V11.856C84.6899 10.576 84.9619 9.48 85.5059 8.568C86.0499 7.656 86.7939 6.96 87.7379 6.48C88.6819 6 89.7459 5.76 90.9299 5.76C92.1139 5.76 93.1779 6 94.1219 6.48C95.0659 6.96 95.8099 7.656 96.3539 8.568C96.8979 9.48 97.1699 10.576 97.1699 11.856V12.24C97.1699 13.52 96.8979 14.616 96.3539 15.528C95.8099 16.44 95.0659 17.136 94.1219 17.616C93.1779 18.096 92.1139 18.336 90.9299 18.336ZM90.9299 15.648C91.8579 15.648 92.6259 15.352 93.2339 14.76C93.8419 14.152 94.1459 13.288 94.1459 12.168V11.928C94.1459 10.808 93.8419 9.952 93.2339 9.36C92.6419 8.752 91.8739 8.448 90.9299 8.448C90.0019 8.448 89.2339 8.752 88.6259 9.36C88.0179 9.952 87.7139 10.808 87.7139 11.928V12.168C87.7139 13.288 88.0179 14.152 88.6259 14.76C89.2339 15.352 90.0019 15.648 90.9299 15.648ZM104.123 18C103.339 18 102.699 17.76 102.203 17.28C101.723 16.784 101.483 16.128 101.483 15.312V8.592H98.5068V6.096H101.483V2.4H104.507V6.096H107.771V8.592H104.507V14.784C104.507 15.264 104.731 15.504 105.179 15.504H107.483V18H104.123ZM114.204 18.336C113.356 18.336 112.596 18.192 111.924 17.904C111.252 17.6 110.716 17.168 110.316 16.608C109.932 16.032 109.74 15.336 109.74 14.52C109.74 13.704 109.932 13.024 110.316 12.48C110.716 11.92 111.26 11.504 111.948 11.232C112.652 10.944 113.452 10.8 114.348 10.8H117.612V10.128C117.612 9.568 117.436 9.112 117.084 8.76C116.732 8.392 116.172 8.208 115.404 8.208C114.652 8.208 114.092 8.384 113.724 8.736C113.356 9.072 113.116 9.512 113.004 10.056L110.22 9.12C110.412 8.512 110.716 7.96 111.132 7.464C111.564 6.952 112.132 6.544 112.836 6.24C113.556 5.92 114.428 5.76 115.452 5.76C117.02 5.76 118.26 6.152 119.172 6.936C120.084 7.72 120.54 8.856 120.54 10.344V14.784C120.54 15.264 120.764 15.504 121.212 15.504H122.172V18H120.156C119.564 18 119.076 17.856 118.692 17.568C118.308 17.28 118.116 16.896 118.116 16.416V16.392H117.66C117.596 16.584 117.452 16.84 117.228 17.16C117.004 17.464 116.652 17.736 116.172 17.976C115.692 18.216 115.036 18.336 114.204 18.336ZM114.732 15.888C115.58 15.888 116.268 15.656 116.796 15.192C117.34 14.712 117.612 14.08 117.612 13.296V13.056H114.564C114.004 13.056 113.564 13.176 113.244 13.416C112.924 13.656 112.764 13.992 112.764 14.424C112.764 14.856 112.932 15.208 113.268 15.48C113.604 15.752 114.092 15.888 114.732 15.888ZM130.381 18V1.2H136.261L139.165 15.84H139.597L142.501 1.2H148.381V18H145.309V3.528H144.877L141.997 18H136.765L133.885 3.528H133.453V18H130.381ZM151.641 18V6.096H154.665V18H151.641ZM153.153 4.704C152.609 4.704 152.145 4.528 151.761 4.176C151.393 3.824 151.209 3.36 151.209 2.784C151.209 2.208 151.393 1.744 151.761 1.392C152.145 1.04 152.609 0.863999 153.153 0.863999C153.713 0.863999 154.177 1.04 154.545 1.392C154.913 1.744 155.097 2.208 155.097 2.784C155.097 3.36 154.913 3.824 154.545 4.176C154.177 4.528 153.713 4.704 153.153 4.704ZM158.016 18V1.2H161.04V18H158.016Z" fill="black"/>
</svg>
