<svg width="744" height="540" viewBox="0 0 744 540" fill="none" xmlns="http://www.w3.org/2000/svg">
<g id="guide-ebook 1" clip-path="url(#clip0_2_2)">
<path id="Vector" d="M269.886 404.286V534.286H595.585C632.694 534.286 662.886 505.126 662.886 469.286C662.886 433.446 632.694 404.286 595.585 404.286H269.886Z" fill="#F2F2F2"/>
<path id="Vector_2" d="M261.886 533.286C261.886 534.612 262.413 535.883 263.351 536.821C264.288 537.759 265.56 538.285 266.886 538.286H601.386C619.553 538.286 636.976 531.069 649.823 518.223C662.669 505.377 669.886 487.953 669.886 469.786C669.886 451.619 662.669 434.195 649.823 421.349C636.976 408.503 619.553 401.286 601.386 401.286H266.886C265.56 401.286 264.288 401.813 263.35 402.75C262.413 403.688 261.886 404.96 261.886 406.286C261.886 407.612 262.413 408.884 263.35 409.822C264.288 410.759 265.56 411.286 266.886 411.286H601.386C616.901 411.286 631.781 417.449 642.752 428.42C653.722 439.391 659.886 454.271 659.886 469.786C659.886 485.301 653.722 500.181 642.752 511.152C631.781 522.123 616.901 528.286 601.386 528.286H266.886C265.56 528.287 264.288 528.813 263.351 529.751C262.413 530.689 261.886 531.96 261.886 533.286Z" fill="#1464F6"/>
<path id="Vector_3" d="M269.886 434.286H619.886C620.151 434.286 620.405 434.181 620.593 433.993C620.78 433.806 620.886 433.551 620.886 433.286C620.886 433.021 620.78 432.766 620.593 432.579C620.405 432.391 620.151 432.286 619.886 432.286H269.886C269.621 432.286 269.366 432.391 269.179 432.579C268.991 432.766 268.886 433.021 268.886 433.286C268.886 433.551 268.991 433.806 269.179 433.993C269.366 434.181 269.621 434.286 269.886 434.286Z" fill="#CCCCCC"/>
<path id="Vector_4" d="M269.886 458.286H619.886C620.151 458.286 620.405 458.181 620.593 457.993C620.78 457.806 620.886 457.551 620.886 457.286C620.886 457.021 620.78 456.766 620.593 456.579C620.405 456.391 620.151 456.286 619.886 456.286H269.886C269.621 456.286 269.366 456.391 269.179 456.579C268.991 456.766 268.886 457.021 268.886 457.286C268.886 457.551 268.991 457.806 269.179 457.993C269.366 458.181 269.621 458.286 269.886 458.286Z" fill="#CCCCCC"/>
<path id="Vector_5" d="M269.886 482.286H619.886C620.151 482.286 620.405 482.181 620.593 481.993C620.78 481.806 620.886 481.551 620.886 481.286C620.886 481.021 620.78 480.766 620.593 480.579C620.405 480.391 620.151 480.286 619.886 480.286H269.886C269.621 480.286 269.366 480.391 269.179 480.579C268.991 480.766 268.886 481.021 268.886 481.286C268.886 481.551 268.991 481.806 269.179 481.993C269.366 482.181 269.621 482.286 269.886 482.286Z" fill="#CCCCCC"/>
<path id="Vector_6" d="M269.886 506.286H619.886C620.151 506.286 620.405 506.181 620.593 505.993C620.78 505.806 620.886 505.551 620.886 505.286C620.886 505.021 620.78 504.766 620.593 504.579C620.405 504.391 620.151 504.286 619.886 504.286H269.886C269.621 504.286 269.366 504.391 269.179 504.579C268.991 504.766 268.886 505.021 268.886 505.286C268.886 505.551 268.991 505.806 269.179 505.993C269.366 506.181 269.621 506.286 269.886 506.286Z" fill="#CCCCCC"/>
<path id="Vector_7" d="M18.1684 428.757L99.7332 529.985L353.348 325.635C382.244 302.352 387.459 260.703 364.972 232.795C342.485 204.887 300.68 201.124 271.784 224.407L18.1684 428.757Z" fill="#F2F2F2"/>
<path id="Vector_8" d="M92.8763 534.226C93.7086 535.258 94.9167 535.918 96.235 536.059C97.5533 536.201 98.874 535.814 99.9068 534.982L360.375 325.11C374.522 313.711 383.561 297.16 385.504 279.097C387.447 261.034 382.135 242.939 370.737 228.792C359.338 214.646 342.787 205.606 324.724 203.663C306.66 201.72 288.565 207.032 274.419 218.431L13.9502 428.303C13.4384 428.715 13.0129 429.224 12.6978 429.8C12.3827 430.376 12.1842 431.009 12.1138 431.662C12.0434 432.315 12.1023 432.976 12.2872 433.606C12.4721 434.236 12.7794 434.824 13.1916 435.335C13.6037 435.847 14.1126 436.272 14.6891 436.587C15.2657 436.902 15.8986 437.1 16.5517 437.17C17.2048 437.24 17.8653 437.181 18.4955 436.995C19.1256 436.81 19.7131 436.502 20.2243 436.09L280.693 226.218C286.675 221.394 293.548 217.796 300.92 215.629C308.293 213.463 316.02 212.77 323.66 213.59C331.301 214.411 338.705 216.728 345.449 220.411C352.194 224.093 358.146 229.068 362.968 235.052C367.789 241.035 371.384 247.91 373.548 255.284C375.712 262.657 376.402 270.384 375.578 278.024C374.755 285.664 372.434 293.067 368.749 299.81C365.064 306.553 360.087 312.504 354.101 317.323L93.6326 527.196C92.6005 528.028 91.941 529.236 91.7992 530.554C91.6574 531.872 92.0448 533.193 92.8763 534.226V534.226Z" fill="#CCCCCC"/>
<path id="Vector_9" d="M36.991 452.117L309.529 232.52C309.631 232.438 309.716 232.336 309.779 232.221C309.842 232.105 309.882 231.979 309.896 231.848C309.91 231.718 309.898 231.586 309.861 231.46C309.824 231.334 309.763 231.216 309.68 231.114C309.598 231.012 309.496 230.927 309.381 230.864C309.266 230.801 309.139 230.761 309.009 230.747C308.878 230.733 308.746 230.745 308.62 230.782C308.494 230.819 308.377 230.88 308.274 230.963L35.7362 450.56C35.6338 450.642 35.5486 450.744 35.4855 450.859C35.4224 450.975 35.3826 451.101 35.3685 451.232C35.3543 451.362 35.366 451.495 35.403 451.621C35.44 451.747 35.5015 451.865 35.584 451.967C35.6664 452.069 35.7682 452.154 35.8836 452.217C35.999 452.28 36.1256 452.32 36.2563 452.334C36.387 452.348 36.5191 452.336 36.6452 452.299C36.7713 452.262 36.8888 452.2 36.991 452.117V452.117Z" fill="#CCCCCC"/>
<path id="Vector_10" d="M52.0491 470.806L324.587 251.208C324.793 251.042 324.925 250.8 324.953 250.537C324.981 250.273 324.904 250.009 324.737 249.803C324.571 249.597 324.33 249.465 324.066 249.436C323.803 249.408 323.539 249.485 323.332 249.651L50.7943 469.248C50.6919 469.331 50.6067 469.432 50.5436 469.548C50.4805 469.663 50.4407 469.789 50.4266 469.92C50.4124 470.051 50.4241 470.183 50.4611 470.309C50.4981 470.435 50.5596 470.553 50.6421 470.655C50.7246 470.758 50.8263 470.843 50.9417 470.906C51.0571 470.969 51.1837 471.008 51.3144 471.022C51.4451 471.036 51.5772 471.024 51.7033 470.987C51.8294 470.95 51.9469 470.888 52.0491 470.806V470.806Z" fill="#CCCCCC"/>
<path id="Vector_11" d="M67.1072 489.494L339.645 269.897C339.852 269.73 339.984 269.489 340.012 269.225C340.041 268.961 339.963 268.697 339.797 268.491C339.63 268.284 339.389 268.152 339.125 268.124C338.861 268.095 338.597 268.173 338.39 268.339L65.8524 487.937C65.7502 488.019 65.6651 488.121 65.6022 488.236C65.5392 488.351 65.4996 488.478 65.4856 488.608C65.4716 488.739 65.4833 488.871 65.5203 488.997C65.5573 489.123 65.6188 489.24 65.7012 489.343C65.7836 489.445 65.8853 489.53 66.0005 489.593C66.1158 489.656 66.2423 489.695 66.3729 489.71C66.5034 489.724 66.6355 489.712 66.7615 489.675C66.8875 489.638 67.005 489.576 67.1072 489.494V489.494Z" fill="#CCCCCC"/>
<path id="Vector_12" d="M82.1653 508.182L354.703 288.585C354.806 288.503 354.891 288.401 354.954 288.286C355.017 288.17 355.056 288.044 355.07 287.913C355.084 287.783 355.073 287.651 355.036 287.525C354.999 287.399 354.937 287.281 354.855 287.179C354.772 287.077 354.671 286.992 354.555 286.929C354.44 286.866 354.314 286.826 354.183 286.812C354.052 286.798 353.92 286.81 353.794 286.847C353.668 286.884 353.551 286.945 353.449 287.028L80.9105 506.625C80.8081 506.707 80.7229 506.809 80.6598 506.924C80.5967 507.04 80.5569 507.166 80.5428 507.297C80.5286 507.427 80.5404 507.56 80.5773 507.686C80.6143 507.812 80.6758 507.929 80.7583 508.032C80.8408 508.134 80.9426 508.219 81.0579 508.282C81.1733 508.345 81.2999 508.385 81.4306 508.399C81.5613 508.413 81.6934 508.401 81.8195 508.364C81.9456 508.326 82.0631 508.265 82.1653 508.182V508.182Z" fill="#CCCCCC"/>
<path id="Vector_13" d="M1 539.286H743C743.265 539.286 743.52 539.181 743.707 538.993C743.895 538.806 744 538.551 744 538.286C744 538.021 743.895 537.766 743.707 537.579C743.52 537.391 743.265 537.286 743 537.286H1C0.734784 537.286 0.480444 537.391 0.292908 537.579C0.105371 537.766 0 538.021 0 538.286C0 538.551 0.105371 538.806 0.292908 538.993C0.480444 539.181 0.734784 539.286 1 539.286Z" fill="#CCCCCC"/>
<path id="Vector_14" d="M405.919 390.622L417.351 390.621L422.788 346.525L405.915 346.527L405.919 390.622Z" fill="#FFB8B8"/>
<path id="Vector_15" d="M425.518 387.355H403.47V401.236H439.4C439.4 399.413 439.04 397.608 438.343 395.924C437.645 394.24 436.623 392.71 435.334 391.42C434.045 390.131 432.514 389.109 430.83 388.411C429.146 387.714 427.341 387.355 425.518 387.355V387.355Z" fill="#041B44"/>
<path id="Vector_16" d="M522.714 390.622L534.146 390.621L539.583 346.525L522.71 346.527L522.714 390.622Z" fill="#FFB8B8"/>
<path id="Vector_17" d="M542.312 387.355H520.264V401.236H556.194C556.194 399.413 555.835 397.608 555.137 395.924C554.44 394.24 553.417 392.71 552.128 391.42C550.839 390.131 549.309 389.109 547.625 388.411C545.94 387.714 544.135 387.355 542.312 387.355V387.355Z" fill="#041B44"/>
<path id="Vector_18" d="M484.529 63.5331V58.533C484.529 49.9798 481.131 41.7769 475.083 35.7288C469.035 29.6808 460.832 26.283 452.279 26.283H452.279C443.726 26.283 435.523 29.6808 429.475 35.7288C423.427 41.7769 420.029 49.9798 420.029 58.533V63.5331C420.029 69.6993 422.479 75.6131 426.839 79.9733C431.199 84.3335 437.113 86.7831 443.279 86.7831H461.279C464.332 86.7831 467.356 86.1817 470.176 85.0133C472.997 83.8449 475.56 82.1323 477.719 79.9733C479.878 77.8143 481.591 75.2513 482.759 72.4305C483.928 69.6096 484.529 66.5863 484.529 63.5331V63.5331Z" fill="#2F2E41"/>
<path id="Vector_19" d="M452.279 88.5035C438.714 88.5035 427.718 77.5072 427.718 63.9425C427.718 50.3778 438.714 39.3815 452.279 39.3815C465.844 39.3815 476.84 50.3778 476.84 63.9425C476.84 77.5072 465.844 88.5035 452.279 88.5035Z" fill="#FFB8B8"/>
<path id="Vector_20" d="M585.875 148.356C584.879 147.414 583.688 146.703 582.386 146.272C581.085 145.841 579.705 145.7 578.344 145.86C576.982 146.02 575.672 146.477 574.506 147.198C573.34 147.919 572.347 148.886 571.595 150.033L550.541 146.05L545 158.255L574.812 163.462C576.822 164.596 579.178 164.954 581.434 164.468C583.69 163.982 585.689 162.685 587.053 160.823C588.417 158.961 589.05 156.663 588.833 154.365C588.616 152.068 587.564 149.929 585.875 148.356V148.356Z" fill="#FFB8B8"/>
<path id="Vector_21" d="M471.427 103.971L471.152 104.388L505.678 127.133L563.936 145.736C564.708 145.984 565.371 146.492 565.811 147.174C566.25 147.856 566.44 148.668 566.348 149.474L565.077 160.421C565.021 160.905 564.864 161.373 564.616 161.793C564.369 162.213 564.036 162.577 563.64 162.861C563.243 163.146 562.792 163.344 562.315 163.443C561.837 163.543 561.344 163.542 560.867 163.439L506.037 151.687C503.384 151.121 500.875 150.017 498.666 148.441L459.878 120.844C458.472 119.838 457.35 118.486 456.621 116.918C455.892 115.35 455.582 113.62 455.72 111.897C455.862 110.171 456.451 108.512 457.429 107.083C458.407 105.654 459.74 104.504 461.297 103.746C462.854 102.989 464.582 102.65 466.31 102.762C468.038 102.875 469.706 103.435 471.152 104.388L471.427 103.971Z" fill="#CCCCCC"/>
<path id="Vector_22" d="M417.147 378.109C418.024 378.109 418.883 377.853 419.618 377.374C420.352 376.894 420.932 376.211 421.284 375.407L473.694 245.907C473.817 245.626 474.022 245.389 474.283 245.228C474.544 245.068 474.848 244.991 475.154 245.008C475.46 245.025 475.753 245.136 475.994 245.325C476.235 245.514 476.413 245.772 476.503 246.065L519.261 372.138C519.442 372.725 519.74 373.269 520.139 373.736C520.537 374.203 521.027 374.583 521.578 374.854C522.129 375.125 522.729 375.28 523.342 375.31C523.955 375.341 524.568 375.245 525.143 375.03L539.481 369.653C540.26 369.363 540.942 368.864 541.454 368.21C541.965 367.556 542.285 366.773 542.378 365.948C548.829 309.756 492.578 167.918 492.009 166.492L491.852 166.097L440.575 177.44L440.468 177.556C420.01 199.874 403.194 340.638 400.031 368.63C399.913 369.641 400.143 370.662 400.683 371.525C401.223 372.388 402.041 373.041 403.002 373.377L415.659 377.853C416.136 378.022 416.64 378.109 417.147 378.109Z" fill="#041B44"/>
<path id="Vector_23" d="M461.327 182.006C473.751 182.006 487.602 179.529 491.865 169.305L491.963 169.07L491.831 168.852C488.466 163.331 484.018 153.912 486.409 152.144C491.118 148.662 493.403 142.934 493.2 135.118C492.76 118.153 481.2 103.09 464.434 97.636H464.434C459.754 96.1384 454.992 94.9122 450.171 93.9637C446.656 93.2545 443.028 93.3325 439.547 94.1921C436.066 95.0517 432.819 96.6716 430.038 98.9353C427.223 101.214 424.947 104.088 423.374 107.351C421.802 110.613 420.971 114.184 420.943 117.806C420.767 135.937 423.558 161.189 437.855 178.526C438.525 179.331 439.457 179.873 440.488 180.057C447.366 181.302 454.338 181.953 461.327 182.006Z" fill="#CCCCCC"/>
<path id="Vector_24" d="M465.949 181.327C465.273 178.901 463.667 176.841 461.48 175.593C459.293 174.345 456.702 174.011 454.27 174.663C453.774 174.801 453.29 174.981 452.823 175.199L436.836 160.65L425.718 168.14L448.58 188.371C449.612 190.232 451.237 191.695 453.197 192.526C455.156 193.357 457.337 193.509 459.393 192.958C460.59 192.63 461.711 192.068 462.69 191.305C463.669 190.541 464.487 189.591 465.097 188.51C465.706 187.428 466.096 186.236 466.242 185.004C466.388 183.771 466.289 182.521 465.949 181.327V181.327Z" fill="#FFB8B8"/>
<path id="Vector_25" d="M439.368 181.512C440.406 181.512 441.411 181.153 442.214 180.496L448.518 175.345C449.044 174.915 449.465 174.372 449.751 173.757C450.037 173.141 450.18 172.469 450.17 171.791C450.159 171.112 449.996 170.444 449.691 169.838C449.386 169.232 448.948 168.702 448.409 168.289L421.967 148.01C421.654 147.768 421.448 147.413 421.395 147.02C421.342 146.628 421.446 146.231 421.684 145.915L438.004 124.339C439.9 121.84 440.851 118.752 440.689 115.619C440.527 112.487 439.261 109.513 437.117 107.224V107.224C434.858 104.785 431.766 103.284 428.452 103.019C425.139 102.754 421.846 103.745 419.229 105.794L419.126 105.903L402.084 130.305C400.241 131.75 398.757 133.601 397.748 135.714C396.739 137.828 396.232 140.146 396.267 142.487C396.302 144.829 396.878 147.13 397.949 149.212C399.021 151.295 400.559 153.101 402.444 154.491L436.69 180.629C437.465 181.202 438.404 181.512 439.368 181.512Z" fill="#CCCCCC"/>
<path id="Vector_26" d="M474.035 57.033V44.8469L452.279 35.3469L431.535 44.8469V57.033C431.535 57.5635 431.745 58.0722 432.121 58.4473C432.496 58.8223 433.004 59.033 433.535 59.033H472.035C472.565 59.033 473.074 58.8223 473.449 58.4473C473.824 58.0722 474.035 57.5635 474.035 57.033Z" fill="#2F2E41"/>
<path id="Vector_27" d="M453.278 27.8997C456.477 17.6611 449.759 5.92731 439.827 1.87464C429.895 -2.17803 418.014 0.654912 409.633 7.35053C401.253 14.0462 396.054 24.0749 393.299 34.4417C390.544 44.8085 390.021 55.6185 389.512 66.3331C377.31 68.5745 369.009 83.0473 373.237 94.7114C377.464 106.375 393.109 112.17 403.914 106.074C414.719 99.9772 417.849 83.5891 410.051 73.94C406.361 69.3743 404.3 63.708 404.193 57.8385C404.087 51.9691 405.943 46.2321 409.465 41.536C412.988 36.84 417.977 33.4535 423.641 31.9128C429.306 30.3722 435.323 30.7654 440.738 33.0303C446.752 35.5452 454.298 29.0109 453.278 27.8997Z" fill="#2F2E41"/>
<path id="Vector_28" d="M590.386 101.083C604.995 100.987 619.422 97.8272 632.734 91.8079C633.526 91.4547 634.199 90.8787 634.67 90.15C635.141 89.4214 635.389 88.5715 635.386 87.7039V51.286C635.385 50.0929 634.91 48.9491 634.066 48.1054C633.223 47.2618 632.079 46.7873 630.886 46.786H549.886C548.693 46.7873 547.549 47.2618 546.705 48.1055C545.862 48.9491 545.387 50.0929 545.386 51.286V87.704C545.382 88.5715 545.631 89.4214 546.102 90.1501C546.573 90.8787 547.245 91.4548 548.038 91.808C561.35 97.8273 575.776 100.987 590.386 101.083V101.083Z" fill="#1464F6"/>
<path id="Vector_29" d="M590.397 71.5799C590.997 71.5804 591.592 71.4609 592.146 71.2283L656.378 44.1287C657.206 43.7793 657.911 43.1897 658.401 42.4361C658.891 41.6824 659.144 40.7993 659.128 39.9004C659.111 39.0015 658.826 38.1282 658.308 37.393C657.791 36.6579 657.065 36.0945 656.224 35.7757L591.992 11.408C590.957 11.0137 589.813 11.0161 588.78 11.4148L525.408 35.7825C524.573 36.1039 523.852 36.6674 523.338 37.4008C522.824 38.1342 522.541 39.0042 522.524 39.8995C522.508 40.7949 522.759 41.6748 523.245 42.4267C523.731 43.1786 524.431 43.7683 525.254 44.1204L588.627 71.2195C589.187 71.4578 589.789 71.5804 590.397 71.5799V71.5799Z" fill="#1464F6"/>
<path id="Vector_30" d="M627.886 94.2859C624.572 94.2859 621.886 91.5996 621.886 88.2859C621.886 84.9722 624.572 82.2859 627.886 82.2859C631.2 82.2859 633.886 84.9722 633.886 88.2859C633.886 91.5996 631.2 94.2859 627.886 94.2859Z" fill="#041B44"/>
<path id="Vector_31" opacity="0.2" d="M525.035 40.2738L588.408 67.373C588.902 67.5842 589.434 67.6938 589.971 67.6951C590.509 67.6964 591.041 67.5894 591.536 67.3805L655.768 40.2817C656.574 39.9495 657.247 39.358 657.68 38.6006C657.964 39.0917 658.139 39.6375 658.195 40.2016C658.251 40.7658 658.187 41.3354 658.006 41.8727C657.825 42.41 657.532 42.9027 657.146 43.3181C656.76 43.7334 656.29 44.0619 655.768 44.2817L591.536 71.3805C591.041 71.5894 590.509 71.6964 589.971 71.6951C589.434 71.6938 588.902 71.5842 588.408 71.373L525.035 44.2738C524.515 44.052 524.048 43.7225 523.665 43.307C523.282 42.8914 522.991 42.3994 522.812 41.8632C522.633 41.3271 522.57 40.759 522.626 40.1966C522.683 39.6342 522.858 39.0902 523.141 38.6006C523.571 39.3519 524.237 39.9401 525.035 40.2738V40.2738Z" fill="black"/>
<path id="Vector_32" d="M627.382 88.2625C627.116 88.2625 626.862 88.1571 626.675 87.9696C626.487 87.7821 626.382 87.5277 626.382 87.2625V53.8011L593.4 41.7859C593.135 41.7899 592.879 41.6883 592.689 41.5036C592.499 41.3188 592.39 41.066 592.386 40.8008C592.382 40.5356 592.483 40.2797 592.668 40.0893C592.853 39.899 593.105 39.7899 593.371 39.7859L626.352 51.8011C626.617 51.795 626.881 51.8428 627.128 51.9417C627.374 52.0405 627.598 52.1884 627.785 52.3763C627.975 52.5619 628.125 52.7836 628.228 53.0283C628.33 53.273 628.382 53.5358 628.382 53.8011V87.2625C628.382 87.5277 628.276 87.782 628.089 87.9696C627.901 88.1571 627.647 88.2625 627.382 88.2625V88.2625Z" fill="#041B44"/>
</g>
<defs>
<clipPath id="clip0_2_2">
<rect width="744" height="539.286" fill="white" transform="matrix(-1 0 0 1 744 0)"/>
</clipPath>
</defs>
</svg>
