<svg width="271" height="55" viewBox="0 0 271 55" fill="none" xmlns="http://www.w3.org/2000/svg">
<path d="M108.584 36V19.2H119.384V22.08H111.752V26.088H118.712V28.968H111.752V33.12H119.528V36H108.584ZM121.969 36V24.096H124.945V25.656H125.377C125.569 25.24 125.929 24.848 126.457 24.48C126.985 24.096 127.785 23.904 128.857 23.904C129.785 23.904 130.593 24.12 131.281 24.552C131.985 24.968 132.529 25.552 132.913 26.304C133.297 27.04 133.489 27.904 133.489 28.896V36H130.465V29.136C130.465 28.24 130.241 27.568 129.793 27.12C129.361 26.672 128.737 26.448 127.921 26.448C126.993 26.448 126.273 26.76 125.761 27.384C125.249 27.992 124.993 28.848 124.993 29.952V36H121.969ZM142.182 36.336C140.998 36.336 139.95 36.088 139.038 35.592C138.142 35.08 137.438 34.368 136.926 33.456C136.43 32.528 136.182 31.44 136.182 30.192V29.904C136.182 28.656 136.43 27.576 136.926 26.664C137.422 25.736 138.118 25.024 139.014 24.528C139.91 24.016 140.95 23.76 142.134 23.76C143.302 23.76 144.318 24.024 145.182 24.552C146.046 25.064 146.718 25.784 147.198 26.712C147.678 27.624 147.918 28.688 147.918 29.904V30.936H139.254C139.286 31.752 139.59 32.416 140.166 32.928C140.742 33.44 141.446 33.696 142.278 33.696C143.126 33.696 143.75 33.512 144.15 33.144C144.55 32.776 144.854 32.368 145.062 31.92L147.534 33.216C147.31 33.632 146.982 34.088 146.55 34.584C146.134 35.064 145.574 35.48 144.87 35.832C144.166 36.168 143.27 36.336 142.182 36.336ZM139.278 28.68H144.846C144.782 27.992 144.502 27.44 144.006 27.024C143.526 26.608 142.894 26.4 142.11 26.4C141.294 26.4 140.646 26.608 140.166 27.024C139.686 27.44 139.39 27.992 139.278 28.68ZM150.61 36V24.096H153.586V25.392H154.018C154.226 24.992 154.57 24.648 155.05 24.36C155.53 24.056 156.162 23.904 156.946 23.904C157.794 23.904 158.474 24.072 158.986 24.408C159.498 24.728 159.89 25.152 160.162 25.68H160.594C160.866 25.168 161.25 24.744 161.746 24.408C162.242 24.072 162.946 23.904 163.858 23.904C164.594 23.904 165.258 24.064 165.85 24.384C166.458 24.688 166.938 25.16 167.29 25.8C167.658 26.424 167.842 27.216 167.842 28.176V36H164.818V28.392C164.818 27.736 164.65 27.248 164.314 26.928C163.978 26.592 163.506 26.424 162.898 26.424C162.21 26.424 161.674 26.648 161.29 27.096C160.922 27.528 160.738 28.152 160.738 28.968V36H157.714V28.392C157.714 27.736 157.546 27.248 157.21 26.928C156.874 26.592 156.402 26.424 155.794 26.424C155.106 26.424 154.57 26.648 154.186 27.096C153.818 27.528 153.634 28.152 153.634 28.968V36H150.61ZM177.092 36V19.2H183.116L186.452 33.84H186.884V19.2H190.004V36H183.98L180.644 21.36H180.212V36H177.092ZM198.93 36.336C197.746 36.336 196.682 36.096 195.738 35.616C194.794 35.136 194.05 34.44 193.506 33.528C192.962 32.616 192.69 31.52 192.69 30.24V29.856C192.69 28.576 192.962 27.48 193.506 26.568C194.05 25.656 194.794 24.96 195.738 24.48C196.682 24 197.746 23.76 198.93 23.76C200.114 23.76 201.178 24 202.122 24.48C203.066 24.96 203.81 25.656 204.354 26.568C204.898 27.48 205.17 28.576 205.17 29.856V30.24C205.17 31.52 204.898 32.616 204.354 33.528C203.81 34.44 203.066 35.136 202.122 35.616C201.178 36.096 200.114 36.336 198.93 36.336ZM198.93 33.648C199.858 33.648 200.626 33.352 201.234 32.76C201.842 32.152 202.146 31.288 202.146 30.168V29.928C202.146 28.808 201.842 27.952 201.234 27.36C200.642 26.752 199.874 26.448 198.93 26.448C198.002 26.448 197.234 26.752 196.626 27.36C196.018 27.952 195.714 28.808 195.714 29.928V30.168C195.714 31.288 196.018 32.152 196.626 32.76C197.234 33.352 198.002 33.648 198.93 33.648ZM212.123 36C211.339 36 210.699 35.76 210.203 35.28C209.723 34.784 209.483 34.128 209.483 33.312V26.592H206.507V24.096H209.483V20.4H212.507V24.096H215.771V26.592H212.507V32.784C212.507 33.264 212.731 33.504 213.179 33.504H215.483V36H212.123ZM222.204 36.336C221.356 36.336 220.596 36.192 219.924 35.904C219.252 35.6 218.716 35.168 218.316 34.608C217.932 34.032 217.74 33.336 217.74 32.52C217.74 31.704 217.932 31.024 218.316 30.48C218.716 29.92 219.26 29.504 219.948 29.232C220.652 28.944 221.452 28.8 222.348 28.8H225.612V28.128C225.612 27.568 225.436 27.112 225.084 26.76C224.732 26.392 224.172 26.208 223.404 26.208C222.652 26.208 222.092 26.384 221.724 26.736C221.356 27.072 221.116 27.512 221.004 28.056L218.22 27.12C218.412 26.512 218.716 25.96 219.132 25.464C219.564 24.952 220.132 24.544 220.836 24.24C221.556 23.92 222.428 23.76 223.452 23.76C225.02 23.76 226.26 24.152 227.172 24.936C228.084 25.72 228.54 26.856 228.54 28.344V32.784C228.54 33.264 228.764 33.504 229.212 33.504H230.172V36H228.156C227.564 36 227.076 35.856 226.692 35.568C226.308 35.28 226.116 34.896 226.116 34.416V34.392H225.66C225.596 34.584 225.452 34.84 225.228 35.16C225.004 35.464 224.652 35.736 224.172 35.976C223.692 36.216 223.036 36.336 222.204 36.336ZM222.732 33.888C223.58 33.888 224.268 33.656 224.796 33.192C225.34 32.712 225.612 32.08 225.612 31.296V31.056H222.564C222.004 31.056 221.564 31.176 221.244 31.416C220.924 31.656 220.764 31.992 220.764 32.424C220.764 32.856 220.932 33.208 221.268 33.48C221.604 33.752 222.092 33.888 222.732 33.888ZM238.381 36V19.2H244.261L247.165 33.84H247.597L250.501 19.2H256.381V36H253.309V21.528H252.877L249.997 36H244.765L241.885 21.528H241.453V36H238.381ZM259.641 36V24.096H262.665V36H259.641ZM261.153 22.704C260.609 22.704 260.145 22.528 259.761 22.176C259.393 21.824 259.209 21.36 259.209 20.784C259.209 20.208 259.393 19.744 259.761 19.392C260.145 19.04 260.609 18.864 261.153 18.864C261.713 18.864 262.177 19.04 262.545 19.392C262.913 19.744 263.097 20.208 263.097 20.784C263.097 21.36 262.913 21.824 262.545 22.176C262.177 22.528 261.713 22.704 261.153 22.704ZM266.016 36V19.2H269.04V36H266.016Z" fill="black"/>
<path d="M3 24.8734C7.96473 21.9278 12.3674 18.3818 16.4278 14.3654C16.4278 14.3654 17.5883 11.3709 17.9814 11.3709C18.3456 11.3709 16.1892 17.7313 15.9839 18.2855C14.294 22.8453 12.9876 32.7136 12.9876 32.7136C12.9876 32.7136 11.3142 46.2619 15.2348 50.109C20.1762 54.9578 30.6479 49.4587 33.4621 45.0728C37.4833 38.806 41.7798 18.5892 37.8456 12.6231C32.6933 4.80987 28.1786 22.34 27.4696 30.2636C26.887 36.7738 28.148 42.2463 31.964 46.4067C36.0505 50.8621 42.1318 49.5208 46.9454 46.8967C54.5086 42.7738 60.3366 32.7982 62.3151 24.7645C62.7512 22.994 65.5597 10.4123 60.928 10.1731C48.0315 9.50705 43.3829 43.8651 54.0476 46.924C69.3394 51.31 85.5577 43.3006 85.9964 26.0813C86.0806 22.7789 84.7033 0.234313 78.4901 3.2826C68.3946 8.80955 72.3561 31.5824 80.0118 40.9726" stroke="black" stroke-width="6" stroke-linecap="round"/>
</svg>
