<svg width="89" height="55" viewBox="0 0 89 55" fill="none" xmlns="http://www.w3.org/2000/svg">
<path d="M3 24.8734C7.96473 21.9278 12.3674 18.3818 16.4278 14.3654C16.4278 14.3654 17.5883 11.3709 17.9814 11.3709C18.3456 11.3709 16.1892 17.7313 15.9839 18.2855C14.294 22.8453 12.9876 32.7136 12.9876 32.7136C12.9876 32.7136 11.3142 46.2619 15.2348 50.109C20.1762 54.9578 30.6479 49.4587 33.4621 45.0728C37.4833 38.806 41.7798 18.5892 37.8456 12.6231C32.6933 4.80987 28.1786 22.34 27.4696 30.2636C26.887 36.7738 28.148 42.2463 31.964 46.4067C36.0505 50.8621 42.1318 49.5208 46.9454 46.8967C54.5086 42.7738 60.3366 32.7982 62.3151 24.7645C62.7512 22.994 65.5597 10.4123 60.928 10.1731C48.0315 9.50705 43.3829 43.8651 54.0476 46.924C69.3394 51.31 85.5577 43.3006 85.9964 26.0813C86.0806 22.7789 84.7033 0.234313 78.4901 3.2826C68.3946 8.80955 72.3561 31.5824 80.0118 40.9726" stroke="black" stroke-width="6" stroke-linecap="round"/>
</svg>
